# xmcd
#
# Track frame offsets:
#	150
#	11993
#	22299
#	34874
#	44959
#	57150
#	67308
#	77285
#	86436
#	98108
#	107294
#	117247
#	125362
#	132743
#	144931
#	152199
#	161455
#	169521
#	180400
#	189458
#	203447
#	215081
#	228262
#	239754
#	250827
#	262097
#	272251
#	280795
#	291629
#	299177
#	307161
#	317215
#	326968
#	336441
#	347786
#
# Disc length: 4794 seconds
#
# Revision: 0
# Processed by: cddbd v1.5.2PL0 Copyright (c) Steve Scherf et al.
# Submitted via: audiograbber 1.83.01
#
DISCID=2912b823
DTITLE=Various Artist - Teenage Blues (Disc2)
DYEAR=2013
DGENRE=Rockabilly
TTITLE0=Carl Trantham And The I All Stars - Where There's A Will (There's A Way
TTITLE0=)
TTITLE1=Bob Varney And Stoney Mt. Playboys - Stoney Mt. Boogie
TTITLE2=Chandos McRill And The Perryville Melody Boys - Money Lovin' Woman
TTITLE3=Leon Holmes - Half A Chance
TTITLE4=Bill Floyd - Hey, Boy
TTITLE5=Billy Match And The Starfires - I Want My Baby
TTITLE6=Dave Brockman And His Twilight Ramblers - Feel Sorry For Me
TTITLE7=Joyce Love With Curly Sanders And His Santones - Peace of Mind
TTITLE8=Lee Voorhies And His Ozark Country Boys - Load Up My Blues
TTITLE9=Gene Ray - Love Proof
TTITLE10=Al Sims And The Alpine Two - Party (Listen 681 version)
TTITLE11=Gene Ray - Rock And Roll Fever
TTITLE12=Al Sims And The Alpine Two - Party (Listen 691 version)
TTITLE13=Plez Gary Mann - Cheer Me Up
TTITLE14=Jeanie Christie With Earl Durrance And His Blue Sky Ramblers - Flying 
TTITLE14=High
TTITLE15=Plez Gary Mann - I Want To Be True
TTITLE16=Harry Peppel And His Shenandoah Valley Rangers (vocal Dick Dorn) - The
TTITLE16=rmostat Baby
TTITLE17=Lewis Pruitt And The True Lads - Pretty Baby
TTITLE18=Leroy Martin and The Rebels - Keen Teen Baby
TTITLE19=Tony And Jackie Lamie With The Swing Kings - Sunset Blues
TTITLE20=Jimmie Dale - Darlin'
TTITLE21=Tony And Jackie Lamie With The Swing Kings - Wore To A Frazzel
TTITLE22=Jimmie Dale - Baby Doll
TTITLE23=Dappa Smith - China Doll
TTITLE24=Bill Goodwin - Teenage Blues
TTITLE25=Jesse Stevens And The Big Sandy Boys - Mama, Mama
TTITLE26=The Three Ramblers (vocal Jerald Boykin) - Walking, Talking Babydoll
TTITLE27=Jesse Stevens And The Big Sandy Boys - No Bluebirds In The Sea
TTITLE28=The Three Ramblers (vocal Jerald Boykin) - If You Call That Love
TTITLE29=Olen Little - The World Belongs To Me
TTITLE30=John Worthan - The Cats Were Jumpin'
TTITLE31=Art Ontario - Wiggle Walkin' Boogie
TTITLE32=Warren Robbe - My Chicken Pen
TTITLE33=Gilbert Headly - I Tried To Be Fair
TTITLE34=Arvel Lewis - Pine Mountain Boogie
EXTD=
EXTT0=
EXTT1=
EXTT2=
EXTT3=
EXTT4=
EXTT5=
EXTT6=
EXTT7=
EXTT8=
EXTT9=
EXTT10=
EXTT11=
EXTT12=
EXTT13=
EXTT14=
EXTT15=
EXTT16=
EXTT17=
EXTT18=
EXTT19=
EXTT20=
EXTT21=
EXTT22=
EXTT23=
EXTT24=
EXTT25=
EXTT26=
EXTT27=
EXTT28=
EXTT29=
EXTT30=
EXTT31=
EXTT32=
EXTT33=
EXTT34=
PLAYORDER=
